<svg width="16" height="16" viewBox="0 0 16 16" fill="none" xmlns="http://www.w3.org/2000/svg">
<path d="M2.66602 7.81738C2.66602 7.56425 2.85412 7.35506 3.09817 7.32195L3.16602 7.31738L13.166 7.31738C13.4422 7.31738 13.666 7.54124 13.666 7.81738C13.666 8.07051 13.4779 8.27971 13.2339 8.31282L13.166 8.31738H3.16602C2.88987 8.31738 2.66602 8.09353 2.66602 7.81738Z" fill="#3D3D3D"/>
<path d="M8.78002 4.15563C8.58434 3.96079 8.58366 3.64421 8.7785 3.44853C8.95563 3.27063 9.23337 3.2539 9.42942 3.39871L9.4856 3.447L13.5189 7.463C13.6974 7.64066 13.7136 7.9194 13.5676 8.11545L13.519 8.1716L9.48563 12.1883C9.28997 12.3831 8.97339 12.3825 8.77853 12.1868C8.60138 12.0089 8.58582 11.7311 8.73146 11.5357L8.77999 11.4797L12.4573 7.81712L8.78002 4.15563Z" fill="#3D3D3D"/>
</svg>
