<svg width="150" height="35" viewBox="0 0 150 35" fill="none" xmlns="http://www.w3.org/2000/svg">
<g clip-path="url(#clip0_42070_8225)">
<path d="M17.15 0C7.67748 0 0 7.67746 0 17.15C0 26.0201 6.73548 33.3175 15.3711 34.207C14.8496 29.9134 15.0436 26.4001 15.7067 23.5135C15.3347 21.7225 14.4898 19.0703 12.5734 17.1864C12.5734 17.1864 13.8348 19.0784 14.5181 21.6214C14.5181 21.6255 14.5221 21.6295 14.5221 21.6335C14.5949 21.9044 14.6596 22.1793 14.7162 22.4623C14.7283 22.527 14.7404 22.5917 14.7526 22.6604C14.8051 22.9515 14.8536 23.2426 14.886 23.5418C5.19513 22.3532 3.12921 13.6569 3.35561 10.3781C13.665 10.9482 15.7754 17.8292 16.0827 22.0985C19.4585 11.0412 30.1843 10.4024 31.0697 10.3781C31.4538 18.8763 25.1509 25.5026 17.6149 26.0807C17.6635 25.8503 17.7201 25.6198 17.7767 25.3934C17.7928 25.3247 17.813 25.26 17.8333 25.1913C17.8777 25.0296 17.9222 24.8679 17.9748 24.7061C17.995 24.6374 18.0192 24.5646 18.0394 24.4959C18.096 24.318 18.1567 24.1442 18.2173 23.9663C18.2335 23.9259 18.2456 23.8854 18.2618 23.845C18.3386 23.6348 18.4195 23.4326 18.5003 23.2305C18.5084 23.2143 18.5125 23.1941 18.5205 23.1779C18.5205 23.1779 18.5205 23.1779 18.5246 23.1779C20.4571 18.5043 24.0229 15.4439 24.0229 15.4439C17.0247 19.4868 15.8441 29.9983 15.6582 34.2231C16.1514 34.2676 16.6446 34.2999 17.15 34.2999C26.6225 34.2999 34.3 26.6225 34.3 17.15C34.3 7.67746 26.6225 0 17.15 0Z" fill="#46A358"/>
<path d="M46.7028 10.7459C48.9709 10.7459 50.8226 11.7203 52.0233 13.4991L49.7754 15.4114C48.9709 14.2875 47.9966 13.7053 46.6462 13.7053C44.5681 13.7053 43.2744 15.0718 43.2744 17.1539C43.2744 19.2724 44.6409 20.6955 46.8362 20.6955C48.0168 20.6955 48.9547 20.2831 49.5531 19.5918V19.0096H46.6664V16.2362H52.7753V20.1335C52.1931 21.1645 51.3684 21.9892 50.301 22.624C49.2337 23.2425 48.0329 23.5619 46.7028 23.5619C42.9914 23.6185 39.9228 20.7319 39.9754 17.1539C39.9188 13.5962 42.9914 10.6893 46.7028 10.7459Z" fill="#46A358"/>
<path d="M61.9572 23.332L59.1676 19.4912H57.8374V23.332H54.6152V10.9688H59.4667C62.22 10.9688 64.2455 12.6546 64.2455 15.2219C64.2455 16.738 63.5137 17.9953 62.2968 18.7433L65.5554 23.332H61.9572ZM57.8334 16.6814H59.4829C60.3804 16.6814 60.9626 16.0992 60.9626 15.2219C60.9626 14.3446 60.3804 13.7786 59.4829 13.7786H57.8334V16.6814Z" fill="#46A358"/>
<path d="M66.832 10.9688H75.4111V13.8716H70.0543V15.5777H73.8748V18.2743H70.0543V20.4292H75.6376V23.332H66.832V10.9688Z" fill="#46A358"/>
<path d="M77.6426 10.9688H86.2216V13.8716H80.8648V15.5777H84.6853V18.2743H80.8648V20.4292H86.448V23.332H77.6426V10.9688Z" fill="#46A358"/>
<path d="M99.4174 10.9686V23.5582H98.3865L91.6792 17.0572V23.3318H88.457V10.7422H89.488L96.1952 17.1502V10.9686H99.4174Z" fill="#46A358"/>
<path d="M103.263 19.1354C103.995 20.1097 104.763 20.7283 106.016 20.7283C106.861 20.7283 107.29 20.4291 107.29 19.8267C107.29 19.285 107.007 19.1152 106.033 18.6826L104.759 18.1206C102.717 17.2191 101.63 16.0587 101.63 14.3931C101.63 12.2018 103.429 10.7383 105.956 10.7383C107.997 10.7383 109.441 11.7126 110.189 13.2287L108.034 14.8782C107.435 13.9807 106.874 13.5683 105.992 13.5683C105.317 13.5683 104.888 13.8311 104.888 14.3567C104.888 14.8054 105.151 15.0521 105.956 15.3674L107.379 15.9658C109.534 16.8673 110.544 17.9508 110.544 19.6933C110.544 22.0907 108.576 23.5543 106.008 23.5543C103.781 23.5543 101.982 22.487 101.08 20.7808L103.263 19.1354Z" fill="#46A358"/>
<path d="M112.393 10.9688H115.615V15.4847H120.131V10.9688H123.353V23.332H120.131V18.3875H115.615V23.332H112.393V10.9688Z" fill="#46A358"/>
<path d="M131.841 10.7427C135.44 10.6659 138.605 13.6091 138.528 17.1507C138.601 20.7286 135.44 23.6153 131.841 23.5587C128.227 23.6153 125.114 20.7286 125.191 17.1507C125.114 13.6091 128.227 10.6699 131.841 10.7427ZM131.858 13.7021C129.873 13.7021 128.486 15.109 128.486 17.1507C128.486 18.1816 128.805 19.0225 129.424 19.6613C130.042 20.2799 130.867 20.5993 131.858 20.5993C133.77 20.5993 135.229 19.2126 135.229 17.1507C135.233 15.109 133.77 13.7021 131.858 13.7021Z" fill="#46A358"/>
<path d="M140.373 10.9688H145.224C147.978 10.9688 150.003 12.6546 150.003 15.2219C150.003 17.7527 147.925 19.4912 145.224 19.4912H143.595V23.332H140.373V10.9688ZM145.241 16.6814C146.138 16.6814 146.72 16.0992 146.72 15.2219C146.72 14.3446 146.138 13.7786 145.241 13.7786H143.591V16.6814H145.241Z" fill="#46A358"/>
</g>
<defs>
<clipPath id="clip0_42070_8225">
<rect width="150" height="34.2999" fill="white"/>
</clipPath>
</defs>
</svg>
